<?xml version="1.0" encoding="UTF-8" standalone="no"?>
<svg
   xmlns:dc="http://purl.org/dc/elements/1.1/"
   xmlns:cc="http://creativecommons.org/ns#"
   xmlns:rdf="http://www.w3.org/1999/02/22-rdf-syntax-ns#"
   xmlns:svg="http://www.w3.org/2000/svg"
   xmlns="http://www.w3.org/2000/svg"
   viewBox="0 0 260 248"
   height="248"
   width="260"
   xml:space="preserve"
   id="svg2"
   version="1.1"><metadata
     id="metadata8"><rdf:RDF><cc:Work
         rdf:about=""><dc:format>image/svg+xml</dc:format><dc:type
           rdf:resource="http://purl.org/dc/dcmitype/StillImage" /></cc:Work></rdf:RDF></metadata><defs
     id="defs6"><clipPath
       id="clipPath20"
       clipPathUnits="userSpaceOnUse"><path
         id="path18"
         d="M -1,0 H 196 V 187 H -1 Z" /></clipPath><clipPath
       id="clipPath24"
       clipPathUnits="userSpaceOnUse"><path
         id="path22"
         d="m 73.62,158.32 c -2.43,3.3 -7.45,-0.28 -5.18,-3.69 0.59,-0.9 1.24,-1.76 1.86,-2.59 7.47,-10.09 11.34,-22.34 14.67,-34.44 0.82,-3 1.61,-6.15 0.68,-9.08 1.34,7.86 0.47,16 -1.55,23.71 -2.02,7.71 -5.1,15.09 -8.39,22.42 -0.56691,1.2928 -1.26738,2.5228 -2.09,3.67 z" /></clipPath><clipPath
       id="clipPath28"
       clipPathUnits="userSpaceOnUse"><path
         id="path26"
         d="M 0,0 H 195 V 186 H 0 Z" /></clipPath><clipPath
       id="clipPath32"
       clipPathUnits="userSpaceOnUse"><path
         id="path30"
         d="m 25.14,137.13 c -5,0.16 -5.68,-7.49 -0.66,-7.89 1.32,-0.1 2.64,-0.13 3.91,-0.17 15.43,-0.42 30,-6 44.05,-12 3.44,-1.48 7,-3.14 9.07,-6.3 -6.32,7.33 -14.65,12.7 -23.5,16.65 -8.85,3.95 -18.29,6.54 -27.72,9 -1.6852,0.426 -3.41239,0.6641 -5.15,0.71 z" /></clipPath><clipPath
       id="clipPath36"
       clipPathUnits="userSpaceOnUse"><path
         id="path34"
         d="M 0,0 H 195 V 186 H 0 Z" /></clipPath><clipPath
       id="clipPath40"
       clipPathUnits="userSpaceOnUse"><path
         id="path38"
         d="m 26.53,118.32 c -3.18,-0.11 -2.46,-4.64 0.74,-4.66 0.84,0 1.68,0 2.48,0.06 9.73,0.4 19.7,-2.29 29.37,-5.24 2.38,-0.73 4.88,-1.55 6.61,-3.33 -5.13485,3.9644 -10.95498,6.9508 -17.17,8.81 -6.11891,1.8206 -12.36201,3.1942 -18.68,4.11 -1.10511,0.1982 -2.22771,0.282 -3.35,0.25 z" /></clipPath><clipPath
       id="clipPath44"
       clipPathUnits="userSpaceOnUse"><path
         id="path42"
         d="M 0,0 H 195 V 186 H 0 Z" /></clipPath><clipPath
       id="clipPath48"
       clipPathUnits="userSpaceOnUse"><path
         id="path46"
         d="m 91.67,34.26 c 0.9,-3.06 5.1,-1.24 4.33,1.87 -0.2,0.81 -0.44,1.61 -0.67,2.38 -2.8,9.33 -2.67,19.66 -2.21,29.76 0.12,2.48 0.29,5.11 1.58,7.22 -2.56319,-5.95562 -4.01054,-12.33142 -4.27,-18.81 -0.24979,-6.38399 -0.03254,-12.77769 0.65,-19.13 0.08701,-1.11353 0.28465,-2.21563 0.59,-3.29 z" /></clipPath><clipPath
       id="clipPath52"
       clipPathUnits="userSpaceOnUse"><path
         id="path50"
         d="M 0,0 H 195 V 186 H 0 Z" /></clipPath><clipPath
       id="clipPath56"
       clipPathUnits="userSpaceOnUse"><path
         id="path54"
         d="m 32.33,162.59 c -1.91,0.33 -2.06,-2.46 -0.15,-2.88 0.5,-0.11 1,-0.2 1.49,-0.28 5.86,-1 11.47,-3.87 16.87,-6.86 1.39212,-0.6377 2.60483,-1.6099 3.53,-2.83 -2.56564,3.0212 -5.66354,5.5463 -9.14,7.45 -3.42378,1.8611 -6.97615,3.4752 -10.63,4.83 -0.63771,0.2503 -1.29718,0.4411 -1.97,0.57 z" /></clipPath><clipPath
       id="clipPath60"
       clipPathUnits="userSpaceOnUse"><path
         id="path58"
         d="M 0,0 H 195 V 186 H 0 Z" /></clipPath><clipPath
       id="clipPath64"
       clipPathUnits="userSpaceOnUse"><path
         id="path62"
         d="M 2.75,88.62 C -2.11,86.12 2,79.25 6.99,81.53 c 1.31,0.6 2.58,1.27 3.8,1.9 14.86,7.71 32.11,10.54 49.09,12.73 4.16,0.53 8.6,1 12.46,-0.65 -10.51,3 -21.69,3.21 -32.5,2 C 29.03,96.3 18.52,93.51 8.11,90.68 6.257937,90.17737 4.461976,89.48713 2.75,88.62 Z" /></clipPath><clipPath
       id="clipPath68"
       clipPathUnits="userSpaceOnUse"><path
         id="path66"
         d="M 0,0 H 195 V 186 H 0 Z" /></clipPath><clipPath
       id="clipPath72"
       clipPathUnits="userSpaceOnUse"><path
         id="path70"
         d="m 16.64,61.89 c -3.5,-3.26 2,-7.11 5.62,-4 1,0.82 1.87,1.69 2.75,2.51 10.64,10 24.71,17.1 38.72,23.66 3.44,1.61 17.59,3.25 21.37,3.16 -9.87,-0.88 -30,-4 -39,-8 C 37.31341,75.04424 28.82054,70.27661 20.68,64.95 19.24017,64.05922 17.88752,63.03469 16.64,61.89 Z" /></clipPath><clipPath
       id="clipPath76"
       clipPathUnits="userSpaceOnUse"><path
         id="path74"
         d="M 0,0 H 195 V 186 H 0 Z" /></clipPath><clipPath
       id="clipPath80"
       clipPathUnits="userSpaceOnUse"><path
         id="path78"
         d="m 41.56,19.21 c -1,-4.66 5.65,-4.73 6.89,-0.07 0.32,1.22 0.58,2.45 0.83,3.62 3.08,14.27 10.61,28.13 18.41,41.48 1.92,3.28 12.63,12.68 15.79,14.75 C 75.86,72.65 61.03,58.66 55.97,50.21 51.11565,41.77814 46.83592,33.02825 43.16,24.02 42.47482,22.47123 41.93905,20.8606 41.56,19.21 Z" /></clipPath><clipPath
       id="clipPath84"
       clipPathUnits="userSpaceOnUse"><path
         id="path82"
         d="M 0,0 H 195 V 186 H 0 Z" /></clipPath><clipPath
       id="clipPath88"
       clipPathUnits="userSpaceOnUse"><path
         id="path86"
         d="m 91.72,183.05 c -2.38,4.85 -9.18,0.86 -7,-4.12 0.57,-1.3 1.2,-2.57 1.81,-3.79 7.32,-14.82 9.84,-32 11.73,-48.81 0.46,-4.14 0.85,-8.54 -0.83,-12.34 3.07,10.37 3.48,21.45 2.42,32.18 -1.06,10.73 -3.59,21.15 -6.23,31.54 -0.45008,1.84 -1.08671,3.6292 -1.9,5.34 z" /></clipPath><clipPath
       id="clipPath92"
       clipPathUnits="userSpaceOnUse"><path
         id="path90"
         d="M 0,0 H 195 V 186 H 0 Z" /></clipPath><clipPath
       id="clipPath96"
       clipPathUnits="userSpaceOnUse"><path
         id="path94"
         d="m 53.82,174.79 c 0.12474,-0.0731 0.26555,-0.1143 0.41,-0.12 0.26,0 0.45,0.27 0.56,0.51 0.59,1.29 0.25,3 1.17,4 0.92987,-1.1164 1.67896,-2.3716 2.22,-3.72 l 3.49,1.08 c 0.32905,-1.3678 0.09101,-2.8105 -0.66,-4 0.61021,-0.2705 1.16597,-0.6501 1.64,-1.12 0.48136,-0.4859 0.64771,-1.2016 0.43,-1.85 -0.80476,-0.1945 -1.63281,-0.2753 -2.46,-0.24 0.13034,-1.535 0.03941,-3.0808 -0.27,-4.59 -0.01655,-0.2262 -0.12495,-0.4358 -0.3,-0.58 -0.25,-0.17 -0.59,0 -0.85,0.14 -1.20018,0.7348 -2.18909,1.7685 -2.87,3 L 55,164.32 c -0.09448,-0.318 -0.30039,-0.5914 -0.58,-0.77 -0.40518,-0.1434 -0.85581,0.01 -1.09,0.37 -0.21232,0.3604 -0.3421,0.7634 -0.38,1.18 l -0.49,3 c -0.0057,0.1538 -0.06195,0.3014 -0.16,0.42 -0.14598,0.1106 -0.32739,0.1639 -0.51,0.15 -1.24,0 -2.47,0 -3.7,0 -0.21,0.66 0.44,1.27 1.07,1.54 0.63,0.27 1.38,0.49 1.7,1.1 0.64,1.25 -1,3 -0.32,4.06 0.86,1.2 2.2,-0.05 3.28,-0.58 z" /></clipPath><clipPath
       id="clipPath100"
       clipPathUnits="userSpaceOnUse"><path
         id="path98"
         d="M 0,0 H 195 V 186 H 0 Z" /></clipPath><clipPath
       id="clipPath104"
       clipPathUnits="userSpaceOnUse"><path
         id="path102"
         d="m 121.21,158.32 c 2.43,3.3 7.44,-0.28 5.18,-3.69 -0.6,-0.9 -1.24,-1.76 -1.86,-2.59 -7.47,-10.09 -11.34,-22.34 -14.68,-34.44 -0.82,-3 -1.61,-6.15 -0.67,-9.08 -1.34,7.86 -0.47,16 1.55,23.71 2.02,7.71 5.14,15.09 8.38,22.39 0.5724,1.3015 1.2761,2.5412 2.1,3.7 z" /></clipPath><clipPath
       id="clipPath108"
       clipPathUnits="userSpaceOnUse"><path
         id="path106"
         d="M 0,0 H 195 V 186 H 0 Z" /></clipPath><clipPath
       id="clipPath112"
       clipPathUnits="userSpaceOnUse"><path
         id="path110"
         d="m 169.68,137.13 c 5,0.16 5.68,-7.49 0.66,-7.89 -1.31,-0.1 -2.64,-0.13 -3.9,-0.17 -15.44,-0.42 -30,-6 -44.05,-12 -3.44,-1.48 -7.06,-3.14 -9.07,-6.3 6.32,7.33 14.64,12.7 23.5,16.65 8.86,3.95 18.28,6.54 27.72,9 1.682,0.4253 3.4057,0.6634 5.14,0.71 z" /></clipPath><clipPath
       id="clipPath116"
       clipPathUnits="userSpaceOnUse"><path
         id="path114"
         d="M 0,0 H 195 V 186 H 0 Z" /></clipPath><clipPath
       id="clipPath120"
       clipPathUnits="userSpaceOnUse"><path
         id="path118"
         d="m 168.29,118.32 c 3.19,-0.11 2.47,-4.64 -0.73,-4.66 -0.84,0 -1.68,0 -2.48,0.06 -9.74,0.4 -19.7,-2.29 -29.37,-5.24 -2.38,-0.73 -4.89,-1.55 -6.61,-3.33 5.1349,3.9644 10.955,6.9508 17.17,8.81 6.1347,1.8297 12.3947,3.21 18.73,4.13 1.0861,0.1878 2.1884,0.2648 3.29,0.23 z" /></clipPath><clipPath
       id="clipPath124"
       clipPathUnits="userSpaceOnUse"><path
         id="path122"
         d="M 0,0 H 195 V 186 H 0 Z" /></clipPath><clipPath
       id="clipPath128"
       clipPathUnits="userSpaceOnUse"><path
         id="path126"
         d="m 162.5,162.59 c 1.91,0.33 2.06,-2.46 0.15,-2.88 -0.5,-0.11 -1,-0.2 -1.49,-0.28 -5.86,-1 -11.48,-3.87 -16.88,-6.86 -1.3892,-0.638 -2.5985,-1.6103 -3.52,-2.83 2.562,3.0209 5.6566,5.546 9.13,7.45 3.4281,1.8593 6.9837,3.4734 10.64,4.83 0.6377,0.2503 1.2972,0.4411 1.97,0.57 z" /></clipPath><clipPath
       id="clipPath132"
       clipPathUnits="userSpaceOnUse"><path
         id="path130"
         d="M 0,0 H 195 V 186 H 0 Z" /></clipPath><clipPath
       id="clipPath136"
       clipPathUnits="userSpaceOnUse"><path
         id="path134"
         d="m 112.61,28.47 c -0.43,-1.9 -3.06,-1 -2.71,1 0.09,0.5 0.21,1 0.32,1.48 1.33,5.79 0.85,12.08 0.17,18.21 -0.0496,1.52806 -0.4792,3.01967 -1.25,4.34 1.7987,-3.52642 2.9342,-7.35327 3.35,-11.29 0.4009,-3.87961 0.5179,-7.78334 0.35,-11.68 -0.005,-0.69278 -0.0822,-1.38315 -0.23,-2.06 z" /></clipPath><clipPath
       id="clipPath140"
       clipPathUnits="userSpaceOnUse"><path
         id="path138"
         d="M 0,0 H 195 V 186 H 0 Z" /></clipPath><clipPath
       id="clipPath144"
       clipPathUnits="userSpaceOnUse"><path
         id="path142"
         d="m 161.27,41.08 c 1.5,-2.54 -2.18,-2.37 -3.8,0.17 -0.42,0.66 -0.81,1.33 -1.18,2 -4.56,7.75 -11.49,15.42 -18.48,22.83 -1.6552,1.92095 -3.5862,3.58573 -5.73,4.94 5.4504,-3.72015 10.48,-8.02211 15,-12.83 4.48,-4.69 8.44,-9.58 12.32,-14.46 0.6834,-0.83935 1.3083,-1.72478 1.87,-2.65 z" /></clipPath><clipPath
       id="clipPath148"
       clipPathUnits="userSpaceOnUse"><path
         id="path146"
         d="M 0,0 H 195 V 186 H 0 Z" /></clipPath><clipPath
       id="clipPath152"
       clipPathUnits="userSpaceOnUse"><path
         id="path150"
         d="m 28.14,41.08 c -1.5,-2.54 2.18,-2.37 3.79,0.17 0.43,0.66 0.82,1.33 1.19,2 4.56,7.75 11.49,15.42 18.48,22.83 1.6529,1.92327 3.58428,3.58837 5.73,4.94 C 51.87757,67.30251 46.84771,63.00031 42.33,58.19 37.85,53.5 33.88,48.61 30.01,43.73 29.32656,42.89065 28.70175,42.00522 28.14,41.08 Z" /></clipPath><clipPath
       id="clipPath156"
       clipPathUnits="userSpaceOnUse"><path
         id="path154"
         d="M 0,0 H 195 V 186 H 0 Z" /></clipPath><clipPath
       id="clipPath160"
       clipPathUnits="userSpaceOnUse"><path
         id="path158"
         d="m 76.83,28.47 c 0.43,-1.9 3.06,-1 2.71,1 -0.09,0.5 -0.21,1 -0.32,1.48 -1.33,5.79 -0.85,12.08 -0.17,18.21 0.04958,1.52806 0.47919,3.01967 1.25,4.34 C 78.51518,49.96094 77.39656,46.12376 77,42.18 76.59905,38.30039 76.48208,34.39666 76.65,30.5 c -0.0093,-0.68103 0.05103,-1.36123 0.18,-2.03 z" /></clipPath><clipPath
       id="clipPath164"
       clipPathUnits="userSpaceOnUse"><path
         id="path162"
         d="M 0,0 H 195 V 186 H 0 Z" /></clipPath><clipPath
       id="clipPath168"
       clipPathUnits="userSpaceOnUse"><path
         id="path166"
         d="m 147.16,143.54 c 1.91,0.34 2.06,-2.45 0.15,-2.88 -0.5,-0.11 -1,-0.19 -1.49,-0.27 -5.86,-1 -11.47,-3.88 -16.88,-6.87 -1.3891,-0.6334 -2.5988,-1.6025 -3.52,-2.82 2.5632,3.021 5.6617,5.5432 9.14,7.44 3.4197,1.8693 6.9727,3.4837 10.63,4.83 0.6346,0.2594 1.295,0.4504 1.97,0.57 z" /></clipPath><clipPath
       id="clipPath172"
       clipPathUnits="userSpaceOnUse"><path
         id="path170"
         d="M 0,0 H 195 V 186 H 0 Z" /></clipPath><clipPath
       id="clipPath176"
       clipPathUnits="userSpaceOnUse"><path
         id="path174"
         d="m 129.27,180.94 c 1.65,1 2.83,-1.51 1.21,-2.62 -0.42,-0.29 -0.86,-0.55 -1.27,-0.81 -5.07,-3.12 -9.2,-7.88 -13.09,-12.68 -1.0582,-1.1013 -1.8187,-2.4537 -2.21,-3.93 1.2478,3.7598 3.1765,7.258 5.69,10.32 2.4786,3.008 5.1724,5.8321 8.06,8.45 0.4938,0.475 1.0331,0.9004 1.61,1.27 z" /></clipPath><clipPath
       id="clipPath180"
       clipPathUnits="userSpaceOnUse"><path
         id="path178"
         d="M 0,0 H 195 V 186 H 0 Z" /></clipPath><clipPath
       id="clipPath184"
       clipPathUnits="userSpaceOnUse"><path
         id="path182"
         d="m 192.08,88.62 c 4.86,-2.5 0.75,-9.37 -4.24,-7.09 -1.31,0.6 -2.59,1.27 -3.8,1.9 -14.86,7.71 -32.12,10.54 -49.09,12.73 -4.16,0.53 -8.6,1 -12.46,-0.65 10.5,3 21.69,3.21 32.5,2 10.81,-1.21 21.32,-4 31.73,-6.83 1.8515,-0.50434 3.6473,-1.19451 5.36,-2.06 z" /></clipPath><clipPath
       id="clipPath188"
       clipPathUnits="userSpaceOnUse"><path
         id="path186"
         d="M 0,0 H 195 V 186 H 0 Z" /></clipPath><clipPath
       id="clipPath192"
       clipPathUnits="userSpaceOnUse"><path
         id="path190"
         d="m 178.19,61.89 c 3.49,-3.26 -2,-7.11 -5.63,-4 -0.95,0.82 -1.87,1.69 -2.74,2.51 -10.65,10 -24.72,17.1 -38.72,23.66 -3.44,1.61 -17.6,3.25 -21.37,3.16 9.87,-0.88 30,-4 39,-8 8.7898,-4.17568 17.286,-8.94331 25.43,-14.27 1.4364,-0.8913 2.7856,-1.91582 4.03,-3.06 z" /></clipPath><clipPath
       id="clipPath196"
       clipPathUnits="userSpaceOnUse"><path
         id="path194"
         d="M 0,0 H 195 V 186 H 0 Z" /></clipPath><clipPath
       id="clipPath200"
       clipPathUnits="userSpaceOnUse"><path
         id="path198"
         d="m 137,13.89 c 0.43,-4.75 -6.21,-4 -6.85,0.79 -0.17,1.25 -0.27,2.5 -0.37,3.7 -1.27,14.54 -7,29.23 -13.07,43.46 -1.49,3.49 -10.94,14.15 -13.82,16.6 6.77,-7.24 19.73,-23 23.69,-32 3.7592,-8.97006 6.9064,-18.18449 9.42,-27.58 0.4856,-1.62236 0.8203,-3.28609 1,-4.97 z" /></clipPath><clipPath
       id="clipPath204"
       clipPathUnits="userSpaceOnUse"><path
         id="path202"
         d="M 0,0 H 195 V 186 H 0 Z" /></clipPath><clipPath
       id="clipPath208"
       clipPathUnits="userSpaceOnUse"><path
         id="path206"
         d="m 141,174.79 c -0.1247,-0.0731 -0.2656,-0.1143 -0.41,-0.12 -0.27,0 -0.45,0.27 -0.56,0.51 -0.6,1.29 -0.25,3 -1.17,4 -0.9299,-1.1164 -1.679,-2.3716 -2.22,-3.72 l -3.49,1.08 c -0.3337,-1.3676 -0.0954,-2.8121 0.66,-4 -0.6132,-0.2705 -1.1723,-0.6499 -1.65,-1.12 -0.4757,-0.4892 -0.6379,-1.2034 -0.42,-1.85 0.8047,-0.1949 1.6328,-0.2757 2.46,-0.24 -0.1286,-1.5346 -0.0411,-3.0797 0.26,-4.59 0.0209,-0.225 0.1285,-0.433 0.3,-0.58 0.26,-0.17 0.6,0 0.86,0.14 1.2002,0.7348 2.1891,1.7685 2.87,3 l 1.3,-3.1 c 0.0911,-0.3197 0.2978,-0.5942 0.58,-0.77 0.4022,-0.1459 0.8517,0.008 1.08,0.37 0.2197,0.3578 0.3532,0.7618 0.39,1.18 l 0.48,3 c 0.0139,0.1537 0.073,0.2999 0.17,0.42 0.146,0.1106 0.3274,0.1639 0.51,0.15 1.23,0 2.47,0 3.7,0 0.21,0.66 -0.45,1.27 -1.08,1.54 -0.63,0.27 -1.37,0.49 -1.69,1.1 -0.64,1.25 1,3 0.31,4.06 -0.81,1.32 -2.15,0.07 -3.24,-0.46 z" /></clipPath><clipPath
       id="clipPath212"
       clipPathUnits="userSpaceOnUse"><path
         id="path210"
         d="M 0,0 H 195 V 186 H 0 Z" /></clipPath><clipPath
       id="clipPath216"
       clipPathUnits="userSpaceOnUse"><path
         id="path214"
         d="m 151.54,31.01 c -0.1247,-0.07307 -0.2656,-0.11428 -0.41,-0.12 -0.27,0 -0.45,0.26 -0.56,0.5 -0.59,1.3 -0.25,3 -1.17,4.06 -0.9277,-1.11787 -1.6766,-2.37276 -2.22,-3.72 l -3.49,1.08 c -0.3291,-1.36776 -0.091,-2.81045 0.66,-4 -0.6102,-0.27053 -1.166,-0.65007 -1.64,-1.12 -0.4814,-0.48589 -0.6477,-1.20162 -0.43,-1.85 0.8043,-0.19778 1.6323,-0.28193 2.46,-0.25 -0.1305,-1.53171 -0.0396,-3.07423 0.27,-4.58 0.0162,-0.22912 0.1244,-0.44195 0.3,-0.59 0.25,-0.16 0.59,0 0.85,0.15 1.2002,0.73476 2.1891,1.76847 2.87,3 l 1.3,-3.1 c 0.0971,-0.31936 0.3021,-0.59508 0.58,-0.78 0.4071,-0.11699 0.8438,0.03525 1.09,0.38 0.2123,0.36042 0.3421,0.76342 0.38,1.18 l 0.49,2.95 c -0.0116,0.17231 0.06,0.33976 0.1925,0.45052 0.1325,0.11075 0.31,0.15144 0.4775,0.10948 1.23,0 2.47,0.05 3.7,0 0.21,0.66 -0.44,1.26 -1.07,1.54 -0.63,0.28 -1.38,0.48 -1.7,1.1 -0.64,1.24 1,3 0.32,4.05 -0.79,1.34 -2.17,0.09 -3.25,-0.44 z" /></clipPath><clipPath
       id="clipPath220"
       clipPathUnits="userSpaceOnUse"><path
         id="path218"
         d="M 0,0 H 195 V 186 H 0 Z" /></clipPath><clipPath
       id="clipPath224"
       clipPathUnits="userSpaceOnUse"><path
         id="path222"
         d="m 181.13,127.39 c -0.1259,-0.0787 -0.2715,-0.1203 -0.42,-0.12 -0.26,0 -0.44,0.26 -0.55,0.5 -0.6,1.29 -0.26,3 -1.17,4.06 -0.9294,-1.1204 -1.6784,-2.3788 -2.22,-3.73 l -3.49,1.09 c -0.3349,-1.3675 -0.0965,-2.8125 0.66,-4 -0.6147,-0.2679 -1.1742,-0.6476 -1.65,-1.12 -0.4711,-0.4915 -0.636,-1.2011 -0.43,-1.85 0.8077,-0.1978 1.639,-0.2819 2.47,-0.25 -0.1289,-1.5313 -0.0413,-3.0731 0.26,-4.58 0.0204,-0.2279 0.1279,-0.4392 0.3,-0.59 0.26,-0.16 0.59,0 0.85,0.14 1.2024,0.7352 2.1945,1.7686 2.88,3 l 1.29,-3.1 c 0.094,-0.3209 0.2997,-0.5976 0.58,-0.78 0.4075,-0.1376 0.8564,0.0189 1.09,0.38 0.2213,0.357 0.355,0.7614 0.39,1.18 l 0.48,3 c 0.0134,0.1491 0.0689,0.2912 0.16,0.41 0.1477,0.1148 0.3339,0.1685 0.52,0.15 1.23,0 2.46,0 3.69,0 0.22,0.65 -0.44,1.26 -1.07,1.54 -0.63,0.28 -1.38,0.48 -1.69,1.09 -0.64,1.25 1,3 0.31,4.06 -0.82,1.3 -2.17,0.05 -3.24,-0.48 z" /></clipPath><clipPath
       id="clipPath228"
       clipPathUnits="userSpaceOnUse"><path
         id="path226"
         d="M 0,0 H 195 V 186 H 0 Z" /></clipPath><clipPath
       id="clipPath232"
       clipPathUnits="userSpaceOnUse"><path
         id="path230"
         d="m 62.84,16.59 c -0.17237,-0.10441 -0.3686,-0.16294 -0.57,-0.17 -0.37,0 -0.63,0.37 -0.78,0.71 -0.83,1.79 -0.35,4.13 -1.63,5.64 -1.29322,-1.55539 -2.33577,-3.30309 -3.09,-5.18 l -4.87,1.5 c -0.45618,-1.90479 -0.12447,-3.91307 0.92,-5.57 -0.85486,-0.37096 -1.63185,-0.90027 -2.29,-1.56 -0.66222,-0.67851 -0.89332,-1.66841 -0.6,-2.57 1.12492,-0.275465 2.28266,-0.393258 3.44,-0.35 -0.18209,-2.136745 -0.05749,-4.288551 0.37,-6.39 0.02532,-0.313274 0.17253,-0.60411 0.41,-0.81 0.4026,-0.163511 0.86298,-0.086136 1.19,0.2 1.68329,1.036626 3.0631,2.499231 4,4.24 l 1.81,-4.32 c 0.12869,-0.447017 0.4169,-0.831293 0.81,-1.08 0.56596,-0.1979224 1.19387,0.0168895 1.52,0.52 0.2977,0.499877 0.47886,1.060444 0.53,1.64 l 0.68,4.11 c 0.0079,0.215226 0.08505,0.422155 0.22,0.59 0.20735,0.152702 0.46359,0.22388 0.72,0.2 1.72,0 3.44,0.07 5.15,0 0.3,0.92 -0.62,1.76 -1.49,2.15 -0.87,0.39 -1.92,0.67 -2.36,1.52 -0.9,1.74 1.42,4.16 0.43,5.66 -1.15,1.8 -3.02,0.05 -4.52,-0.68 z" /></clipPath><clipPath
       id="clipPath236"
       clipPathUnits="userSpaceOnUse"><path
         id="path234"
         d="M 0,0 H 195 V 186 H 0 Z" /></clipPath><clipPath
       id="clipPath240"
       clipPathUnits="userSpaceOnUse"><path
         id="path238"
         d="m 13.63,124.51 c -0.17601,-0.1044 -0.37547,-0.1629 -0.58,-0.17 -0.36,0 -0.62,0.37 -0.78,0.71 -0.82,1.8 -0.35,4.13 -1.62,5.65 -1.296446,-1.5586 -2.342306,-3.3096 -3.1,-5.19 l -4.86,1.51 c -0.466037,-1.9077 -0.133777,-3.9229 0.92,-5.58 -0.856286,-0.3684 -1.633738,-0.898 -2.29,-1.56 -0.6684518,-0.6751 -0.9004303,-1.6687 -0.6,-2.57 1.125212,-0.2731 2.283091,-0.3876 3.44,-0.34 -0.181037,-2.1363 -0.059844,-4.2875 0.36,-6.39 0.021963,-0.3193 0.173746,-0.6156 0.42,-0.82 0.36,-0.23 0.82,0 1.19,0.2 1.680894,1.0396 3.060032,2.5014 4,4.24 l 1.81,-4.32 c 0.1341,-0.4415 0.41673,-0.8231 0.8,-1.08 0.56596,-0.1979 1.19387,0.0169 1.52,0.52 0.30089,0.4992 0.48546,1.0597 0.54,1.64 l 0.67,4.12 c 0.01734,0.2119 0.09742,0.4138 0.23,0.58 0.20514,0.1572 0.46317,0.2289 0.72,0.2 1.71,0 3.43,0.07 5.15,0.06 0.29,0.91 -0.62,1.76 -1.5,2.14 -0.88,0.38 -1.92,0.68 -2.36,1.53 -0.89,1.74 1.42,4.15 0.44,5.65 -1.15,1.75 -3.02,0.02 -4.52,-0.73 z" /></clipPath><clipPath
       id="clipPath244"
       clipPathUnits="userSpaceOnUse"><path
         id="path242"
         d="M 0,0 H 195 V 186 H 0 Z" /></clipPath><clipPath
       id="clipPath248"
       clipPathUnits="userSpaceOnUse"><path
         id="path246"
         d="m 163,57.68 c -0.0892,-0.05844 -0.1934,-0.08971 -0.3,-0.09 -0.2,0 -0.33,0.2 -0.42,0.37 -0.44,1 -0.18,2.2 -0.86,3 -0.6897,-0.82343 -1.2433,-1.75181 -1.64,-2.75 l -2.59,0.8 c -0.2612,-1.02462 -0.0836,-2.11173 0.49,-3 -0.4533,-0.201 -0.8666,-0.48217 -1.22,-0.83 -0.3474,-0.36492 -0.4664,-0.89107 -0.31,-1.37 0.5962,-0.13933 1.2081,-0.19985 1.82,-0.18 -0.0987,-1.13371 -0.0313,-2.27576 0.2,-3.39 0.0107,-0.17042 0.0901,-0.32921 0.22,-0.44 0.19,-0.12 0.44,0 0.63,0.11 0.8911,0.55195 1.622,1.3277 2.12,2.25 l 1,-2.29 c 0.0718,-0.23731 0.2238,-0.44233 0.43,-0.58 0.3023,-0.10217 0.6354,0.01297 0.81,0.28 0.1592,0.2645 0.2551,0.56228 0.28,0.87 l 0.36,2.19 c -0.007,0.12765 0.0468,0.2511 0.1457,0.33218 0.0989,0.08107 0.2306,0.10999 0.3543,0.07782 0.92,0 1.83,0 2.74,0 0.16,0.49 -0.33,0.94 -0.79,1.14 -0.46,0.2 -1,0.36 -1.26,0.81 -0.47,0.93 0.76,2.21 0.23,3 -0.53,0.79 -1.68,0.08 -2.44,-0.31 z" /></clipPath><clipPath
       id="clipPath252"
       clipPathUnits="userSpaceOnUse"><path
         id="path250"
         d="M 0,0 H 195 V 186 H 0 Z" /></clipPath><clipPath
       id="clipPath256"
       clipPathUnits="userSpaceOnUse"><path
         id="path254"
         d="m 96.11,19.08 c -0.09296,-0.05823 -0.20031,-0.0894 -0.31,-0.09 -0.19,0 -0.33,0.2 -0.41,0.38 -0.44,0.95 -0.19,2.19 -0.86,3 -0.69083,-0.82814 -1.24759,-1.75944 -1.65,-2.76 l -2.58,0.8 c -0.25993,-1.02467 -0.08245,-2.11128 0.49,-3 -0.45531,-0.19737 -0.86923,-0.47897 -1.22,-0.83 -0.355,-0.3606 -0.47852,-0.88945 -0.32,-1.37 0.59943,-0.14021 1.21474,-0.20073 1.83,-0.18 -0.09766,-1.13329 -0.03368,-2.27472 0.19,-3.39 0.01219,-0.16718 0.09155,-0.3223 0.22,-0.43 0.19,-0.13 0.44,0 0.63,0.1 0.89474,0.55059 1.62923,1.32646 2.13,2.25 l 1,-2.29 c 0.07181,-0.23731 0.2238,-0.44233 0.43,-0.58 0.30226,-0.10217 0.63537,0.01297 0.81,0.28 0.15923,0.2645 0.25507,0.56228 0.28,0.87 l 0.36,2.19 c 0.0077,0.1131 0.04955,0.22119 0.12,0.31 0.11157,0.07652 0.24481,0.11509 0.38,0.11 0.91,0 1.82,0 2.74,0 0.15,0.49 -0.33,0.94 -0.8,1.14 -0.47,0.2 -1,0.36 -1.25,0.81 -0.48,0.93 0.75,2.21 0.23,3 -0.52,0.79 -1.64,0.08 -2.44,-0.32 z" /></clipPath><clipPath
       id="clipPath260"
       clipPathUnits="userSpaceOnUse"><path
         id="path258"
         d="M 0,0 H 195 V 186 H 0 Z" /></clipPath><clipPath
       id="clipPath264"
       clipPathUnits="userSpaceOnUse"><path
         id="path262"
         d="m 31.41,154.18 c -0.08985,-0.0569 -0.19364,-0.0881 -0.3,-0.09 -0.19798,0.0355 -0.35983,0.1781 -0.42,0.37 -0.44,1 -0.19,2.2 -0.86,3 -0.69075,-0.8245 -1.24755,-1.7525 -1.65,-2.75 l -2.58,0.8 c -0.25627,-1.0248 -0.07903,-2.11 0.49,-3 -0.45485,-0.1937 -0.86883,-0.472 -1.22,-0.82 -0.35293,-0.3617 -0.47617,-0.8893 -0.32,-1.37 0.59789,-0.1493 1.21448,-0.21 1.83,-0.18 -0.09699,-1.1366 -0.03303,-2.2813 0.19,-3.4 0.01584,-0.1684 0.09872,-0.3234 0.23,-0.43 0.19,-0.12 0.43,0 0.63,0.1 0.89236,0.5547 1.62341,1.334 2.12,2.26 l 1,-2.3 c 0.06831,-0.2364 0.22141,-0.4394 0.43,-0.57 0.30226,-0.1022 0.63537,0.013 0.81,0.28 0.15923,0.2645 0.25507,0.5623 0.28,0.87 l 0.36,2.18 c 0.0077,0.1131 0.04955,0.2212 0.12,0.31 0.10723,0.0853 0.24379,0.1248 0.38,0.11 0.91,0 1.83,0 2.74,0 0.15,0.48 -0.33,0.93 -0.8,1.14 -0.47,0.21 -1,0.36 -1.25,0.81 -0.48,0.92 0.76,2.21 0.23,3 -0.53,0.79 -1.64,0.07 -2.44,-0.32 z" /></clipPath><clipPath
       id="clipPath268"
       clipPathUnits="userSpaceOnUse"><path
         id="path266"
         d="M 0,0 H 195 V 186 H 0 Z" /></clipPath><clipPath
       id="clipPath272"
       clipPathUnits="userSpaceOnUse"><path
         id="path270"
         d="m 65.84,78.05 c -0.08865,-0.05954 -0.19322,-0.09091 -0.3,-0.09 -0.2,0 -0.33,0.19 -0.41,0.37 -0.44,1 -0.19,2.2 -0.87,3 -0.68417,-0.82734 -1.23728,-1.75481 -1.64,-2.75 l -2.59,0.8 c -0.25031,-1.02507 -0.07346,-2.10785 0.49,-3 -0.45106,-0.19969 -0.8613,-0.48109 -1.21,-0.83 -0.355,-0.3606 -0.47852,-0.88945 -0.32,-1.37 0.59533,-0.14443 1.20791,-0.20501 1.82,-0.18 -0.0937,-1.1371 -0.02637,-2.28173 0.2,-3.4 0.01219,-0.16718 0.09155,-0.3223 0.22,-0.43 0.19,-0.12 0.44,0 0.63,0.11 0.89474,0.55059 1.62923,1.32646 2.13,2.25 l 1,-2.29 c 0.0661,-0.24014 0.21944,-0.44696 0.43,-0.58 0.29933,-0.1046 0.63123,0.01156 0.8,0.28 0.16275,0.26362 0.26202,0.56145 0.29,0.87 l 0.36,2.18 c -3.9e-4,0.12256 0.04612,0.24063 0.13,0.33 0.10558,0.08844 0.2435,0.12837 0.38,0.11 0.90667,0 1.81667,0 2.73,0 0.16,0.48 -0.32,0.94 -0.79,1.14 -0.47,0.2 -1,0.36 -1.25,0.81 -0.48,0.92 0.75,2.21 0.23,3 -0.52,0.79 -1.66,0.06 -2.46,-0.33 z" /></clipPath><clipPath
       id="clipPath276"
       clipPathUnits="userSpaceOnUse"><path
         id="path274"
         d="M 0,0 H 195 V 186 H 0 Z" /></clipPath><clipPath
       id="clipPath280"
       clipPathUnits="userSpaceOnUse"><path
         id="path278"
         d="m 40.85,107.72 c -0.09255,-0.0508 -0.19478,-0.0814 -0.3,-0.09 -0.19464,0.0445 -0.35085,0.1893 -0.41,0.38 -0.44,0.95 -0.19,2.19 -0.87,3 -0.68784,-0.8284 -1.24125,-1.7598 -1.64,-2.76 l -2.59,0.8 c -0.24798,-1.0252 -0.07127,-2.107 0.49,-3 -0.45485,-0.1937 -0.86883,-0.472 -1.22,-0.82 -0.34739,-0.3649 -0.46644,-0.8911 -0.31,-1.37 0.59441,-0.1498 1.20777,-0.2104 1.82,-0.18 -0.0937,-1.1371 -0.02637,-2.2817 0.2,-3.4 0.01219,-0.1672 0.09155,-0.3223 0.22,-0.43 0.19,-0.12 0.44,0 0.63,0.1 0.89367,0.5562 1.62761,1.335 2.13,2.26 l 1,-2.3 c 0.0658,-0.23486 0.21517,-0.43758 0.42,-0.57 0.30226,-0.10217 0.63537,0.01297 0.81,0.28 0.16275,0.26362 0.26202,0.5615 0.29,0.87 l 0.35,2.18 c 0.0077,0.1131 0.04955,0.2212 0.12,0.31 0.1103,0.0869 0.25056,0.1264 0.39,0.11 0.90667,0 1.81667,0 2.73,0 0.16,0.48 -0.33,0.93 -0.79,1.14 -0.46,0.21 -1,0.36 -1.26,0.81 -0.47,0.92 0.76,2.21 0.24,3 -0.52,0.79 -1.65,0.08 -2.45,-0.32 z" /></clipPath><clipPath
       id="clipPath284"
       clipPathUnits="userSpaceOnUse"><path
         id="path282"
         d="M 0,0 H 195 V 186 H 0 Z" /></clipPath><clipPath
       id="clipPath288"
       clipPathUnits="userSpaceOnUse"><path
         id="path286"
         d="m 148.19,100.74 c -0.0886,-0.0595 -0.1932,-0.0909 -0.3,-0.09 -0.2,0 -0.33,0.19 -0.41,0.37 -0.44,1 -0.19,2.2 -0.87,3 -0.6876,-0.8249 -1.2411,-1.7529 -1.64,-2.75 l -2.59,0.8 c -0.2503,-1.0251 -0.0735,-2.10785 0.49,-3 -0.4533,-0.201 -0.8666,-0.48217 -1.22,-0.83 -0.3474,-0.36492 -0.4664,-0.89107 -0.31,-1.37 0.5953,-0.14482 1.2079,-0.20541 1.82,-0.18 -0.0937,-1.1371 -0.0264,-2.28173 0.2,-3.4 0.0122,-0.16718 0.0916,-0.3223 0.22,-0.43 0.19,-0.12 0.44,0 0.63,0.11 0.8947,0.55059 1.6292,1.32646 2.13,2.25 l 1,-2.29 c 0.0661,-0.24014 0.2194,-0.44696 0.43,-0.58 0.2993,-0.10075 0.6288,0.01458 0.8,0.28 0.1627,0.26362 0.262,0.56145 0.29,0.87 l 0.36,2.18 c -0.0107,0.12935 0.042,0.25586 0.1414,0.33934 0.0993,0.08348 0.233,0.11355 0.3586,0.08066 0.9133,0 1.8233,0 2.73,0 0.16,0.48 -0.33,0.94 -0.79,1.14 -0.46,0.2 -1,0.36 -1.26,0.81 -0.47,0.92 0.76,2.21 0.24,3 -0.52,0.79 -1.64,0.08 -2.45,-0.31 z" /></clipPath><clipPath
       id="clipPath292"
       clipPathUnits="userSpaceOnUse"><path
         id="path290"
         d="M 0,0 H 195 V 186 H 0 Z" /></clipPath><clipPath
       id="clipPath296"
       clipPathUnits="userSpaceOnUse"><path
         id="path294"
         d="m 96.11,106.58 c -0.09296,-0.0582 -0.20031,-0.0894 -0.31,-0.09 -0.19,0 -0.33,0.19 -0.41,0.37 -0.44,1 -0.19,2.2 -0.86,3 -0.69075,-0.8245 -1.24755,-1.7525 -1.65,-2.75 l -2.58,0.8 c -0.25627,-1.0248 -0.07903,-2.11 0.49,-3 -0.45485,-0.1937 -0.86883,-0.472 -1.22,-0.82 -0.35293,-0.3617 -0.47617,-0.8893 -0.32,-1.37 0.59781,-0.1498 1.21447,-0.2104 1.83,-0.18 -0.09699,-1.1366 -0.03303,-2.2813 0.19,-3.4 0.01732,-0.1657 0.09575,-0.319 0.22,-0.43 0.19,-0.12 0.44,0 0.63,0.1 0.89603,0.55335 1.63064,1.3328 2.13,2.26 l 1,-2.3 c 0.06831,-0.23644 0.22141,-0.43939 0.43,-0.57 0.30226,-0.10217 0.63537,0.01297 0.81,0.28 0.15923,0.2645 0.25507,0.56228 0.28,0.87 l 0.36,2.18 c 0.0077,0.1131 0.04955,0.2212 0.12,0.31 0.10723,0.0853 0.24379,0.1248 0.38,0.11 0.91,0 1.82,0 2.74,0 0.15,0.48 -0.33,0.93 -0.8,1.14 -0.47,0.21 -1,0.36 -1.25,0.81 -0.48,0.92 0.75,2.21 0.23,3 -0.52,0.79 -1.64,0.07 -2.44,-0.32 z" /></clipPath><clipPath
       id="clipPath300"
       clipPathUnits="userSpaceOnUse"><path
         id="path298"
         d="M 0,0 H 195 V 186 H 0 Z" /></clipPath><clipPath
       id="clipPath304"
       clipPathUnits="userSpaceOnUse"><path
         id="path302"
         d="m 79.76,99.46 c -0.09255,-0.05078 -0.19478,-0.08145 -0.3,-0.09 -0.19464,0.04452 -0.35085,0.1893 -0.41,0.38 -0.44,1 -0.19,2.19 -0.87,3 -0.6899,-0.827 -1.24352,-1.7587 -1.64,-2.76 l -2.59,0.81 c -0.24682,-1.0252 -0.07019,-2.10661 0.49,-3 -0.45485,-0.19374 -0.86883,-0.47199 -1.22,-0.82 -0.34739,-0.36492 -0.46644,-0.89107 -0.31,-1.37 0.59441,-0.14979 1.20777,-0.21045 1.82,-0.18 -0.0937,-1.1371 -0.02637,-2.28173 0.2,-3.4 0.01219,-0.16718 0.09155,-0.3223 0.22,-0.43 0.19,-0.12 0.44,0 0.63,0.1 0.89367,0.55625 1.62761,1.33498 2.13,2.26 l 1,-2.3 c 0.06831,-0.23644 0.22141,-0.43939 0.43,-0.57 0.29932,-0.10075 0.62884,0.01458 0.8,0.28 0.16275,0.26362 0.26202,0.56145 0.29,0.87 l 0.36,2.18 c 0.0042,0.11214 0.04257,0.22031 0.11,0.31 0.1103,0.08688 0.25056,0.12644 0.39,0.11 0.91333,0 1.82333,0 2.73,0 0.16,0.48 -0.33,0.93 -0.79,1.14 -0.46,0.21 -1,0.36 -1.26,0.81 -0.47,0.92 0.76,2.21 0.24,3 -0.52,0.79 -1.65,0.07 -2.45,-0.33 z" /></clipPath><clipPath
       id="clipPath308"
       clipPathUnits="userSpaceOnUse"><path
         id="path306"
         d="M 0,0 H 195 V 186 H 0 Z" /></clipPath><clipPath
       id="clipPath312"
       clipPathUnits="userSpaceOnUse"><path
         id="path310"
         d="m 64.53,142.5 c -0.09296,-0.0582 -0.20031,-0.0894 -0.31,-0.09 -0.19,0 -0.33,0.19 -0.41,0.37 -0.44,1 -0.19,2.2 -0.86,3 -0.69075,-0.8245 -1.24755,-1.7525 -1.65,-2.75 l -2.58,0.8 c -0.26117,-1.0246 -0.08361,-2.1117 0.49,-3 -0.4533,-0.201 -0.86659,-0.4822 -1.22,-0.83 -0.355,-0.3606 -0.47852,-0.8895 -0.32,-1.37 0.59874,-0.1443 1.21461,-0.2049 1.83,-0.18 -0.09672,-1.1366 -0.03276,-2.2812 0.19,-3.4 0.01732,-0.1657 0.09575,-0.319 0.22,-0.43 0.19,-0.12 0.44,0 0.63,0.11 0.89776,0.5469 1.63312,1.3236 2.13,2.25 l 1,-2.29 c 0.07181,-0.2373 0.2238,-0.4423 0.43,-0.58 0.30226,-0.1022 0.63537,0.013 0.81,0.28 0.15923,0.2645 0.25507,0.5623 0.28,0.87 l 0.36,2.18 c 0.0064,0.1134 0.0484,0.2219 0.12,0.31 0.10723,0.0853 0.24379,0.1248 0.38,0.11 0.91,0 1.83,0 2.74,0 0.15,0.49 -0.33,0.94 -0.8,1.14 -0.47,0.2 -1,0.36 -1.25,0.81 -0.48,0.93 0.75,2.21 0.23,3 -0.52,0.79 -1.64,0.08 -2.44,-0.31 z" /></clipPath><clipPath
       id="clipPath316"
       clipPathUnits="userSpaceOnUse"><path
         id="path314"
         d="M 0,0 H 195 V 186 H 0 Z" /></clipPath><clipPath
       id="clipPath320"
       clipPathUnits="userSpaceOnUse"><path
         id="path318"
         d="m 94.54,86.32 c -0.09664,-0.04953 -0.20187,-0.08008 -0.31,-0.09 -0.19,0 -0.33,0.2 -0.41,0.38 -0.44,0.95 -0.19,2.19 -0.86,3 -0.69083,-0.82814 -1.24759,-1.75944 -1.65,-2.76 l -2.58,0.8 c -0.2587,-1.02473 -0.08131,-2.11084 0.49,-3 -0.45485,-0.19374 -0.86883,-0.47199 -1.22,-0.82 -0.35293,-0.36174 -0.47617,-0.88935 -0.32,-1.37 0.59789,-0.14932 1.21448,-0.20997 1.83,-0.18 -0.09699,-1.13663 -0.03303,-2.28126 0.19,-3.4 0.01732,-0.1657 0.09575,-0.319 0.22,-0.43 0.19,-0.12 0.44,0 0.64,0.1 0.89088,0.55652 1.62151,1.3354 2.12,2.26 l 1,-2.3 c 0.06831,-0.23644 0.22141,-0.43939 0.43,-0.57 0.30226,-0.10217 0.63537,0.01297 0.81,0.28 0.15923,0.2645 0.25507,0.56228 0.28,0.87 l 0.36,2.18 c 0.0077,0.1131 0.04955,0.22119 0.12,0.31 0.10723,0.0853 0.24379,0.12483 0.38,0.11 0.91,0 1.83,0 2.74,0 0.15,0.48 -0.33,0.93 -0.8,1.14 -0.47,0.21 -1,0.36 -1.25,0.81 -0.48,0.92 0.75,2.21 0.23,3 -0.52,0.79 -1.64,0.1 -2.44,-0.32 z" /></clipPath><clipPath
       id="clipPath324"
       clipPathUnits="userSpaceOnUse"><path
         id="path322"
         d="M 0,0 H 195 V 186 H 0 Z" /></clipPath></defs><g
     transform="matrix(1.3333333,0,0,-1.3333333,0,248)"
     id="g10"><g
       id="g12" /><g
       id="g14"><g
         id="g16" /><g
         id="g634"><g
           style="opacity:0.8"
           id="g632"
           clip-path="url(#clipPath20)"><g
             id="g326" /><g
             id="g334"><g
               id="g332"
               clip-path="url(#clipPath24)"><g
                 id="g330"
                 clip-path="url(#clipPath28)"><path
                   id="path328"
                   style="fill:#6c63ff;fill-opacity:0.5;fill-rule:nonzero;stroke:none"
                   d="m 65.17,162.62 h 22.82 v -55.1 H 65.17 Z" /></g></g></g><g
             id="g342"><g
               id="g340"
               clip-path="url(#clipPath32)"><g
                 id="g338"
                 clip-path="url(#clipPath36)"><path
                   id="path336"
                   style="fill:#6c63ff;fill-opacity:1;fill-rule:nonzero;stroke:none"
                   d="M 18.46,138.29 H 82.51 V 109.77 H 18.46 Z" /></g></g></g><g
             id="g350"><g
               id="g348"
               clip-path="url(#clipPath40)"><g
                 id="g346"
                 clip-path="url(#clipPath44)"><path
                   id="path344"
                   style="fill:#6c63ff;fill-opacity:0.2;fill-rule:nonzero;stroke:none"
                   d="M 22.35,119.352 H 66.73 V 104.15 H 22.35 Z" /></g></g></g><g
             id="g358"><g
               id="g356"
               clip-path="url(#clipPath48)"><g
                 id="g354"
                 clip-path="url(#clipPath52)"><path
                   id="path352"
                   style="fill:#6c63ff;fill-opacity:0.5;fill-rule:nonzero;stroke:none"
                   d="M 89.18021,76.49 H 97.77 V 30.2 h -8.58979 z" /></g></g></g><g
             id="g366"><g
               id="g364"
               clip-path="url(#clipPath56)"><g
                 id="g362"
                 clip-path="url(#clipPath60)"><path
                   id="path360"
                   style="fill:#6c63ff;fill-opacity:0.2;fill-rule:nonzero;stroke:none"
                   d="m 29.27,163.92 h 25.8 v -15.18 h -25.8 z" /></g></g></g><g
             id="g374"><g
               id="g372"
               clip-path="url(#clipPath64)"><g
                 id="g370"
                 clip-path="url(#clipPath68)"><path
                   id="path368"
                   style="fill:#6c63ff;fill-opacity:1;fill-rule:nonzero;stroke:none"
                   d="M -1,99.72 H 73.34 V 78.25 H -1 Z" /></g></g></g><g
             id="g382"><g
               id="g380"
               clip-path="url(#clipPath72)"><g
                 id="g378"
                 clip-path="url(#clipPath76)"><path
                   id="path376"
                   style="fill:#6c63ff;fill-opacity:0.5;fill-rule:nonzero;stroke:none"
                   d="M 12.14,88.31 H 86.1 V 53.78 H 12.14 Z" /></g></g></g><g
             id="g390"><g
               id="g388"
               clip-path="url(#clipPath80)"><g
                 id="g386"
                 clip-path="url(#clipPath84)"><path
                   id="path384"
                   style="fill:#6c63ff;fill-opacity:1;fill-rule:nonzero;stroke:none"
                   d="M 39.56,79.99 H 84.48 V 13.48 H 39.56 Z" /></g></g></g><g
             id="g398"><g
               id="g396"
               clip-path="url(#clipPath88)"><g
                 id="g394"
                 clip-path="url(#clipPath92)"><path
                   id="path392"
                   style="fill:#6c63ff;fill-opacity:1;fill-rule:nonzero;stroke:none"
                   d="m 81.54,187 h 20.37 V 112.99 H 81.54 Z" /></g></g></g><g
             id="g406"><g
               id="g404"
               clip-path="url(#clipPath96)"><g
                 id="g402"
                 clip-path="url(#clipPath100)"><path
                   id="path400"
                   style="fill:#6c63ff;fill-opacity:1;fill-rule:nonzero;stroke:none"
                   d="M 46.88,180.18 H 64.29771 V 162.4066 H 46.88 Z" /></g></g></g><g
             id="g414"><g
               id="g412"
               clip-path="url(#clipPath104)"><g
                 id="g410"
                 clip-path="url(#clipPath108)"><path
                   id="path408"
                   style="fill:#6c63ff;fill-opacity:0.5;fill-rule:nonzero;stroke:none"
                   d="m 106.84,162.62 h 22.81 v -55.1 h -22.81 z" /></g></g></g><g
             id="g422"><g
               id="g420"
               clip-path="url(#clipPath112)"><g
                 id="g418"
                 clip-path="url(#clipPath116)"><path
                   id="path416"
                   style="fill:#6c63ff;fill-opacity:1;fill-rule:nonzero;stroke:none"
                   d="m 112.32,138.29 h 64.04 v -28.52 h -64.04 z" /></g></g></g><g
             id="g430"><g
               id="g428"
               clip-path="url(#clipPath120)"><g
                 id="g426"
                 clip-path="url(#clipPath124)"><path
                   id="path424"
                   style="fill:#6c63ff;fill-opacity:0.5;fill-rule:nonzero;stroke:none"
                   d="m 128.1,119.3548 h 44.38 V 104.15 H 128.1 Z" /></g></g></g><g
             id="g438"><g
               id="g436"
               clip-path="url(#clipPath128)"><g
                 id="g434"
                 clip-path="url(#clipPath132)"><path
                   id="path432"
                   style="fill:#6c63ff;fill-opacity:0.2;fill-rule:nonzero;stroke:none"
                   d="m 139.76,163.92 h 25.8 v -15.18 h -25.8 z" /></g></g></g><g
             id="g446"><g
               id="g444"
               clip-path="url(#clipPath136)"><g
                 id="g442"
                 clip-path="url(#clipPath140)"><path
                   id="path440"
                   style="fill:#6c63ff;fill-opacity:0.2;fill-rule:nonzero;stroke:none"
                   d="m 108.14,54.5 h 5.8679 V 25.57 H 108.14 Z" /></g></g></g><g
             id="g454"><g
               id="g452"
               clip-path="url(#clipPath144)"><g
                 id="g450"
                 clip-path="url(#clipPath148)"><path
                   id="path448"
                   style="fill:#6c63ff;fill-opacity:0.5;fill-rule:nonzero;stroke:none"
                   d="m 131.08,72.02 h 32.69 V 37.54 h -32.69 z" /></g></g></g><g
             id="g462"><g
               id="g460"
               clip-path="url(#clipPath152)"><g
                 id="g458"
                 clip-path="url(#clipPath156)"><path
                   id="path456"
                   style="fill:#6c63ff;fill-opacity:0.2;fill-rule:nonzero;stroke:none"
                   d="M 25.64,72.02 H 58.33 V 37.54 H 25.64 Z" /></g></g></g><g
             id="g470"><g
               id="g468"
               clip-path="url(#clipPath160)"><g
                 id="g466"
                 clip-path="url(#clipPath164)"><path
                   id="path464"
                   style="fill:#6c63ff;fill-opacity:0.2;fill-rule:nonzero;stroke:none"
                   d="M 75.48208,54.5 H 81.3 V 25.57 h -5.81792 z" /></g></g></g><g
             id="g478"><g
               id="g476"
               clip-path="url(#clipPath168)"><g
                 id="g474"
                 clip-path="url(#clipPath172)"><path
                   id="path472"
                   style="fill:#6c63ff;fill-opacity:0.2;fill-rule:nonzero;stroke:none"
                   d="m 124.42,144.88 h 25.8 V 129.7 h -25.8 z" /></g></g></g><g
             id="g486"><g
               id="g484"
               clip-path="url(#clipPath176)"><g
                 id="g482"
                 clip-path="url(#clipPath180)"><path
                   id="path480"
                   style="fill:#6c63ff;fill-opacity:0.2;fill-rule:nonzero;stroke:none"
                   d="M 112.91,182.94 H 133.1 V 159.9 h -20.19 z" /></g></g></g><g
             id="g494"><g
               id="g492"
               clip-path="url(#clipPath184)"><g
                 id="g490"
                 clip-path="url(#clipPath188)"><path
                   id="path488"
                   style="fill:#6c63ff;fill-opacity:1;fill-rule:nonzero;stroke:none"
                   d="M 121.49,99.72 H 196 V 78.25 h -74.51 z" /></g></g></g><g
             id="g502"><g
               id="g500"
               clip-path="url(#clipPath192)"><g
                 id="g498"
                 clip-path="url(#clipPath196)"><path
                   id="path496"
                   style="fill:#6c63ff;fill-opacity:0.5;fill-rule:nonzero;stroke:none"
                   d="m 108.73,88.31 h 73.95 V 53.78 h -73.95 z" /></g></g></g><g
             id="g510"><g
               id="g508"
               clip-path="url(#clipPath200)"><g
                 id="g506"
                 clip-path="url(#clipPath204)"><path
                   id="path504"
                   style="fill:#6c63ff;fill-opacity:1;fill-rule:nonzero;stroke:none"
                   d="m 101.89,79.44 h 36.54 V 8.14 h -36.54 z" /></g></g></g><g
             id="g518"><g
               id="g516"
               clip-path="url(#clipPath208)"><g
                 id="g514"
                 clip-path="url(#clipPath212)"><path
                   id="path512"
                   style="fill:#6c63ff;fill-opacity:1;fill-rule:nonzero;stroke:none"
                   d="M 130.5221,180.18 H 147.91 v -17.8959 h -17.3879 z" /></g></g></g><g
             id="g526"><g
               id="g524"
               clip-path="url(#clipPath216)"><g
                 id="g522"
                 clip-path="url(#clipPath220)"><path
                   id="path520"
                   style="fill:#6c63ff;fill-opacity:0.2;fill-rule:nonzero;stroke:none"
                   d="M 141.0623,36.45 H 158.45 V 18.57301 h -17.3877 z" /></g></g></g><g
             id="g534"><g
               id="g532"
               clip-path="url(#clipPath224)"><g
                 id="g530"
                 clip-path="url(#clipPath228)"><path
                   id="path528"
                   style="fill:#6c63ff;fill-opacity:1;fill-rule:nonzero;stroke:none"
                   d="M 170.654,132.83 H 188.04 V 114.9224 H 170.654 Z" /></g></g></g><g
             id="g542"><g
               id="g540"
               clip-path="url(#clipPath232)"><g
                 id="g538"
                 clip-path="url(#clipPath236)"><path
                   id="path536"
                   style="fill:#6c63ff;fill-opacity:1;fill-rule:nonzero;stroke:none"
                   d="M 48.63668,23.77 H 72.08 V -0.3179224 H 48.63668 Z" /></g></g></g><g
             id="g550"><g
               id="g548"
               clip-path="url(#clipPath240)"><g
                 id="g546"
                 clip-path="url(#clipPath244)"><path
                   id="path544"
                   style="fill:#6c63ff;fill-opacity:1;fill-rule:nonzero;stroke:none"
                   d="M -0.5804303,131.7 H 22.86 V 107.6021 H -0.5804303 Z" /></g></g></g><g
             id="g558"><g
               id="g556"
               clip-path="url(#clipPath248)"><g
                 id="g554"
                 clip-path="url(#clipPath252)"><path
                   id="path552"
                   style="fill:#6c63ff;fill-opacity:0.2;fill-rule:nonzero;stroke:none"
                   d="M 154.9936,61.96 H 168.42 V 48.18783 h -13.4264 z" /></g></g></g><g
             id="g566"><g
               id="g564"
               clip-path="url(#clipPath256)"><g
                 id="g562"
                 clip-path="url(#clipPath260)"><path
                   id="path560"
                   style="fill:#6c63ff;fill-opacity:0.2;fill-rule:nonzero;stroke:none"
                   d="M 88.09148,23.37 H 101.52 V 9.587826 H 88.09148 Z" /></g></g></g><g
             id="g574"><g
               id="g572"
               clip-path="url(#clipPath264)"><g
                 id="g570"
                 clip-path="url(#clipPath268)"><path
                   id="path568"
                   style="fill:#6c63ff;fill-opacity:0.5;fill-rule:nonzero;stroke:none"
                   d="M 23.39383,158.46 H 36.82 V 144.6978 H 23.39383 Z" /></g></g></g><g
             id="g582"><g
               id="g580"
               clip-path="url(#clipPath272)"><g
                 id="g578"
                 clip-path="url(#clipPath276)"><path
                   id="path576"
                   style="fill:#6c63ff;fill-opacity:0.5;fill-rule:nonzero;stroke:none"
                   d="M 57.83148,82.33 H 71.27 V 68.5554 H 57.83148 Z" /></g></g></g><g
             id="g590"><g
               id="g588"
               clip-path="url(#clipPath280)"><g
                 id="g586"
                 clip-path="url(#clipPath284)"><path
                   id="path584"
                   style="fill:#6c63ff;fill-opacity:0.5;fill-rule:nonzero;stroke:none"
                   d="M 32.84356,112.01 H 46.27 V 98.23783 H 32.84356 Z" /></g></g></g><g
             id="g598"><g
               id="g596"
               clip-path="url(#clipPath288)"><g
                 id="g594"
                 clip-path="url(#clipPath292)"><path
                   id="path592"
                   style="fill:#6c63ff;fill-opacity:0.5;fill-rule:nonzero;stroke:none"
                   d="M 140.1836,105.02 H 153.61 V 91.24925 h -13.4264 z" /></g></g></g><g
             id="g606"><g
               id="g604"
               clip-path="url(#clipPath296)"><g
                 id="g602"
                 clip-path="url(#clipPath300)"><path
                   id="path600"
                   style="fill:#6c63ff;fill-opacity:0.2;fill-rule:nonzero;stroke:none"
                   d="M 88.09383,110.86 H 101.52 V 97.09783 H 88.09383 Z" /></g></g></g><g
             id="g614"><g
               id="g612"
               clip-path="url(#clipPath304)"><g
                 id="g610"
                 clip-path="url(#clipPath308)"><path
                   id="path608"
                   style="fill:#6c63ff;fill-opacity:0.3;fill-rule:nonzero;stroke:none"
                   d="M 71.75356,103.75 H 85.18 V 89.98925 H 71.75356 Z" /></g></g></g><g
             id="g622"><g
               id="g620"
               clip-path="url(#clipPath312)"><g
                 id="g618"
                 clip-path="url(#clipPath316)"><path
                   id="path616"
                   style="fill:#6c63ff;fill-opacity:0.2;fill-rule:nonzero;stroke:none"
                   d="M 56.51148,146.78 H 69.94 V 133.0078 H 56.51148 Z" /></g></g></g><g
             id="g630"><g
               id="g628"
               clip-path="url(#clipPath320)"><g
                 id="g626"
                 clip-path="url(#clipPath324)"><path
                   id="path624"
                   style="fill:#6c63ff;fill-opacity:0.3;fill-rule:nonzero;stroke:none"
                   d="M 86.52383,90.61 H 99.95 V 76.83783 H 86.52383 Z" /></g></g></g></g></g></g></g></svg>